<mxfile host="app.diagrams.net" agent="Mozilla/5.0 (Windows NT 10.0; Win64; x64) AppleWebKit/537.36 (KHTML, like Gecko) Chrome/135.0.0.0 Safari/537.36" version="26.2.14">
  <diagram name="Page-1" id="NNBshU3lTbO9-8Ss-x7V">
    <mxGraphModel dx="787" dy="784" grid="1" gridSize="10" guides="1" tooltips="1" connect="1" arrows="1" fold="1" page="1" pageScale="1" pageWidth="850" pageHeight="1100" math="0" shadow="0">
      <root>
        <mxCell id="0" />
        <mxCell id="1" parent="0" />
        <mxCell id="BVA5kGVqj-zwQhe6XmQE-6" style="edgeStyle=orthogonalEdgeStyle;rounded=0;orthogonalLoop=1;jettySize=auto;html=1;" edge="1" parent="1" source="BVA5kGVqj-zwQhe6XmQE-1" target="BVA5kGVqj-zwQhe6XmQE-2">
          <mxGeometry relative="1" as="geometry" />
        </mxCell>
        <mxCell id="BVA5kGVqj-zwQhe6XmQE-9" value="Encrypt" style="edgeLabel;html=1;align=center;verticalAlign=middle;resizable=0;points=[];" vertex="1" connectable="0" parent="BVA5kGVqj-zwQhe6XmQE-6">
          <mxGeometry x="-0.3" y="4" relative="1" as="geometry">
            <mxPoint as="offset" />
          </mxGeometry>
        </mxCell>
        <mxCell id="BVA5kGVqj-zwQhe6XmQE-1" value="Frontend&lt;div&gt;- React&lt;br&gt;&lt;div&gt;- CryptoJS&lt;/div&gt;&lt;/div&gt;" style="rounded=0;whiteSpace=wrap;html=1;" vertex="1" parent="1">
          <mxGeometry x="30" y="360" width="160" height="130" as="geometry" />
        </mxCell>
        <mxCell id="BVA5kGVqj-zwQhe6XmQE-7" style="edgeStyle=orthogonalEdgeStyle;rounded=0;orthogonalLoop=1;jettySize=auto;html=1;exitX=0;exitY=0.75;exitDx=0;exitDy=0;entryX=1;entryY=0.75;entryDx=0;entryDy=0;" edge="1" parent="1" source="BVA5kGVqj-zwQhe6XmQE-2" target="BVA5kGVqj-zwQhe6XmQE-1">
          <mxGeometry relative="1" as="geometry" />
        </mxCell>
        <mxCell id="BVA5kGVqj-zwQhe6XmQE-17" style="edgeStyle=orthogonalEdgeStyle;rounded=0;orthogonalLoop=1;jettySize=auto;html=1;exitX=0.5;exitY=1;exitDx=0;exitDy=0;" edge="1" parent="1" source="BVA5kGVqj-zwQhe6XmQE-2">
          <mxGeometry relative="1" as="geometry">
            <mxPoint x="375" y="570" as="targetPoint" />
          </mxGeometry>
        </mxCell>
        <mxCell id="BVA5kGVqj-zwQhe6XmQE-18" value="Decrypt" style="edgeLabel;html=1;align=center;verticalAlign=middle;resizable=0;points=[];" vertex="1" connectable="0" parent="BVA5kGVqj-zwQhe6XmQE-17">
          <mxGeometry x="0.1051" y="2" relative="1" as="geometry">
            <mxPoint as="offset" />
          </mxGeometry>
        </mxCell>
        <mxCell id="BVA5kGVqj-zwQhe6XmQE-2" value="Backend&lt;div&gt;&lt;br&gt;&lt;/div&gt;&lt;div&gt;-FastAPI&lt;/div&gt;&lt;div&gt;&lt;br&gt;&lt;/div&gt;" style="rounded=0;whiteSpace=wrap;html=1;" vertex="1" parent="1">
          <mxGeometry x="300" y="360" width="150" height="130" as="geometry" />
        </mxCell>
        <mxCell id="BVA5kGVqj-zwQhe6XmQE-3" value="Database&lt;div&gt;-PostgreSQL&lt;/div&gt;" style="shape=cylinder3;whiteSpace=wrap;html=1;boundedLbl=1;backgroundOutline=1;size=15;" vertex="1" parent="1">
          <mxGeometry x="640" y="350" width="100" height="120" as="geometry" />
        </mxCell>
        <mxCell id="BVA5kGVqj-zwQhe6XmQE-12" style="edgeStyle=orthogonalEdgeStyle;rounded=0;orthogonalLoop=1;jettySize=auto;html=1;entryX=-0.01;entryY=0.625;entryDx=0;entryDy=0;entryPerimeter=0;" edge="1" parent="1" source="BVA5kGVqj-zwQhe6XmQE-2" target="BVA5kGVqj-zwQhe6XmQE-3">
          <mxGeometry relative="1" as="geometry" />
        </mxCell>
        <mxCell id="BVA5kGVqj-zwQhe6XmQE-13" value="Store encrypted" style="edgeLabel;html=1;align=center;verticalAlign=middle;resizable=0;points=[];" vertex="1" connectable="0" parent="BVA5kGVqj-zwQhe6XmQE-12">
          <mxGeometry x="-0.1746" relative="1" as="geometry">
            <mxPoint as="offset" />
          </mxGeometry>
        </mxCell>
        <mxCell id="BVA5kGVqj-zwQhe6XmQE-14" value="JWT AUTH" style="rounded=1;whiteSpace=wrap;html=1;" vertex="1" parent="1">
          <mxGeometry x="320" y="580" width="120" height="60" as="geometry" />
        </mxCell>
      </root>
    </mxGraphModel>
  </diagram>
</mxfile>
